# Alias OBJ Model File
# Exported from SketchUp, (c) 2000-2012 Trimble Navigation Limited
# File units = millimeters

mtllib 9 choice.mtl

g Mesh1 Model

usemtl Metal_Aluminum_Anodized
v 250 300 -300
vt 0.218723 0.218723
vn 1 0 -0
v 250 300 -27.28
vt 0.0198892 0.218723
v 250 5.63993e-015 -27.28
vt 0.0198892 4.11194e-018
v 250 5.63993e-015 -300
vt 0.218723 4.11194e-018
v 250 50 -300
vt 0.218723 0.0364538
v 250 120 -300
vt 0.218723 0.0874891
f 1/1/1 2/2/1 3/3/1 4/4/1 5/5/1 6/6/1 

usemtl Translucent_Glass_Gray
vt -9.84252 11.811
vn 0 -1 -0
vt -9.84252 1.07402
v 8.4599e-014 300 -27.2959
vt -3.33067e-015 1.07464
v -5.63993e-015 300 -300
vt 2.22045e-016 11.811
f 1/7/2 2/8/2 7/9/2 8/10/2 

v 19.4797 300 -19.1679
vt -0.766918 0.754642
v 230.129 300 -19.0212
vt -9.0602 0.748865
v 209.717 300 -12.208
vt -8.25658 0.480631
v 188.869 300 -6.87559
vt -7.4358 0.270692
v 167.693 300 -3.05131
vt -6.60208 0.12013
v 149.587 300 -1.108
vt -5.88925 0.043622
v 100.314 300 -1.108
vt -3.94939 0.043622
v 81.8936 300 -3.11107
vt -3.22416 0.122483
v 60.7225 300 -6.96485
vt -2.39065 0.274207
v 39.8821 300 -12.3263
vt -1.57016 0.485288
f 9/11/2 7/9/2 2/8/2 10/12/2 11/13/2 12/14/2 13/15/2 14/16/2 15/17/2 16/18/2 17/19/2 18/20/2 

usemtl Metal_Aluminum_Anodized
v 19.4797 5.63993e-015 -19.1679
vt 0.00772554 4.00012e-018
vn -0.351732 -2.76204e-017 0.936101
v 19.4797 71.9951 -19.1679
vt 0.00772554 0.0524899
v 19.0943 71.6747 -19.3287
vt 0.00742106 0.0522563
vn -0.385079 -6.0884e-018 0.922884
v 16.3117 70.4259 -20.4898
vt 0.00522286 0.0513458
v 13.3257 70 -21.7357
vt 0.00286391 0.0510353
v 10.3397 70.4259 -22.9816
vt 0.000504957 0.0513458
v 7.55716 71.6747 -24.1427
vt -0.00169324 0.0522563
v 5.16774 73.6612 -25.1397
vt -0.00358087 0.0537046
v 3.33428 76.25 -25.9047
vt -0.0050293 0.055592
v 2.18172 79.2648 -26.3856
vt -0.00593982 0.05779
v 1.7886 82.5 -26.5496
vt -0.00625038 0.0601487
v 2.18172 85.7352 -26.3856
vt -0.00593982 0.0625075
v 3.33428 88.75 -25.9047
vt -0.0050293 0.0647055
v 5.16774 91.3388 -25.1397
vt -0.00358087 0.0665929
v 7.55716 93.3253 -24.1427
vt -0.00169324 0.0680412
v 10.3397 94.5741 -22.9816
vt 0.000504957 0.0689516
v 13.3257 95 -21.7357
vt 0.00286391 0.0692622
v 16.3117 94.5741 -20.4898
vt 0.00522286 0.0689516
v 19.0943 93.3253 -19.3287
vt 0.00742106 0.0680412
v 19.4797 93.0049 -19.1679
vt 0.00772554 0.0678076
vt 0.00772554 0.218723
vt -0.00766337 0.218723
v 8.4599e-014 5.63993e-015 -27.2959
vt -0.00766337 4.00012e-018
f 19/21/3 20/22/3 21/23/4 22/24/4 23/25/4 24/26/4 25/27/4 26/28/4 27/29/4 28/30/4 29/31/4 30/32/4 31/33/4 32/34/4 33/35/4 34/36/4 35/37/4 36/38/4 37/39/4 38/40/3 9/41/3 7/42/4 39/43/4 

vt 0.00902221 0.218723
vt 0.00902221 0.0678076
v 21.5418 91.3388 -18.4764
vt 0.0106079 0.0665929
vn -0.317933 -4.91169e-017 0.948113
v 23.4284 88.75 -17.8438
vt 0.0120586 0.0647055
v 24.6143 85.7352 -17.4461
vt 0.0129706 0.0625075
v 25.0188 82.5 -17.3105
vt 0.0132817 0.0601487
v 24.6143 79.2648 -17.4461
vt 0.0129706 0.05779
v 23.4284 76.25 -17.8438
vt 0.0120586 0.055592
v 21.5418 73.6612 -18.4764
vt 0.0106079 0.0537046
vt 0.00902221 0.0524899
vt 0.00902221 3.23937e-018
v 39.8821 5.63993e-015 -12.3263
vt 0.0247112 3.23937e-018
vn -0.283724 -5.13277e-017 0.958906
v 39.8821 70.0569 -12.3263
vt 0.0247112 0.0510768
v 37.2225 70.4259 -13.2182
vt 0.022666 0.0513458
v 34.3622 71.6747 -14.1773
vt 0.0204665 0.0522563
v 31.906 73.6612 -15.001
vt 0.0185777 0.0537046
v 30.0213 76.25 -15.633
vt 0.0171284 0.055592
v 28.8365 79.2648 -16.0303
vt 0.0162173 0.05779
v 28.4324 82.5 -16.1658
vt 0.0159066 0.0601487
v 28.8365 85.7352 -16.0303
vt 0.0162173 0.0625075
v 30.0213 88.75 -15.633
vt 0.0171284 0.0647055
v 31.906 91.3388 -15.001
vt 0.0185777 0.0665929
v 34.3622 93.3253 -14.1773
vt 0.0204665 0.0680412
v 37.2225 94.5741 -13.2182
vt 0.022666 0.0689516
v 39.8821 94.9431 -12.3263
vt 0.0247112 0.0692207
vt 0.0247112 0.218723
f 9/44/3 38/45/3 40/46/5 41/47/5 42/48/5 43/49/5 44/50/5 45/51/5 46/52/5 20/53/3 19/54/3 47/55/6 48/56/6 49/57/5 50/58/5 51/59/5 52/60/5 53/61/5 54/62/5 55/63/5 56/64/5 57/65/5 58/66/5 59/67/5 60/68/6 18/69/6 

usemtl FrontColor
v 230.129 5.63993e-015 -19.0212
v 209.717 5.63993e-015 -12.208
v 188.869 5.63993e-015 -6.87559
v 167.693 5.63993e-015 -3.05131
v 149.587 5.63993e-015 -1.108
v 100.314 5.63993e-015 -1.108
v 81.8936 5.63993e-015 -3.11107
v 60.7225 5.63993e-015 -6.96485
f 19/11/2 39/9/2 3/8/2 61/12/2 62/13/2 63/14/2 64/15/2 65/16/2 66/17/2 67/18/2 68/19/2 47/20/2 

usemtl Metal_Aluminum_Anodized
vt 0.160255 0.218723
vn 0.350428 2.22425e-017 0.93659
v 230.129 92.8449 -19.0212
vt 0.160255 0.067691
v 230.707 93.3253 -19.2615
vt 0.160711 0.0680412
vn 0.383793 2.11111e-017 0.923419
v 233.491 94.5741 -20.4186
vt 0.16291 0.0689516
v 236.479 95 -21.6604
vt 0.165269 0.0692622
v 239.467 94.5741 -22.9021
vt 0.167627 0.0689516
v 242.251 93.3253 -24.0593
vt 0.169826 0.0680412
v 244.642 91.3388 -25.0529
vt 0.171713 0.0665929
v 246.476 88.75 -25.8154
vt 0.173162 0.0647055
v 247.629 85.7352 -26.2947
vt 0.174072 0.0625075
v 248.023 82.5 -26.4582
vt 0.174383 0.0601487
v 247.629 79.2648 -26.2947
vt 0.174072 0.05779
v 246.476 76.25 -25.8154
vt 0.173162 0.055592
v 244.642 73.6612 -25.0529
vt 0.171713 0.0537046
v 242.251 71.6747 -24.0593
vt 0.169826 0.0522563
v 239.467 70.4259 -22.9021
vt 0.167627 0.0513458
v 236.479 70 -21.6604
vt 0.165269 0.0510353
v 233.491 70.4259 -20.4186
vt 0.16291 0.0513458
v 230.707 71.6747 -19.2615
vt 0.160711 0.0522563
v 230.129 72.1551 -19.0212
vt 0.160255 0.0526065
vt 0.160255 3.02287e-018
vt 0.175944 3.02287e-018
vt 0.175944 0.218723
f 10/70/7 69/71/7 70/72/8 71/73/8 72/74/8 73/75/8 74/76/8 75/77/8 76/78/8 77/79/8 78/80/8 79/81/8 80/82/8 81/83/8 82/84/8 83/85/8 84/86/8 85/87/8 86/88/8 87/89/7 61/90/7 3/91/8 2/92/8 

vt 0.147852 0.218723
vn 0.282388 2.8678e-018 0.9593
v 209.717 94.9844 -12.208
vt 0.147852 0.0692508
v 212.675 94.5741 -13.1954
vt 0.150125 0.0689516
vn 0.316612 2.33452e-017 0.948555
v 215.537 93.3253 -14.1505
vt 0.152325 0.0680412
v 217.994 91.3388 -14.9707
vt 0.154213 0.0665929
v 219.879 88.75 -15.6001
vt 0.155663 0.0647055
v 221.065 85.7352 -15.9957
vt 0.156574 0.0625075
v 221.469 82.5 -16.1306
vt 0.156884 0.0601487
v 221.065 79.2648 -15.9957
vt 0.156574 0.05779
v 219.879 76.25 -15.6001
vt 0.155663 0.055592
v 217.994 73.6612 -14.9707
vt 0.154213 0.0537046
v 215.537 71.6747 -14.1505
vt 0.152325 0.0522563
v 212.675 70.4259 -13.1954
vt 0.150125 0.0513458
v 209.717 70.0156 -12.208
vt 0.147852 0.0510467
vt 0.147852 3.1789e-018
vt 0.163541 3.1789e-018
vt 0.163541 0.0526065
v 228.264 73.6612 -18.3987
vt 0.162107 0.0537046
v 226.376 76.25 -17.7686
vt 0.160656 0.055592
v 225.19 79.2648 -17.3726
vt 0.159744 0.05779
v 224.785 82.5 -17.2375
vt 0.159433 0.0601487
v 225.19 85.7352 -17.3726
vt 0.159744 0.0625075
v 226.376 88.75 -17.7686
vt 0.160656 0.0647055
v 228.264 91.3388 -18.3987
vt 0.162107 0.0665929
vt 0.163541 0.067691
vt 0.163541 0.218723
f 11/93/9 88/94/9 89/95/10 90/96/10 91/97/10 92/98/10 93/99/10 94/100/10 95/101/10 96/102/10 97/103/10 98/104/10 99/105/10 100/106/9 62/107/9 61/108/7 87/109/7 101/110/10 102/111/10 103/112/10 104/113/10 105/114/10 106/115/10 107/116/10 69/117/7 10/118/7 

vt 0.134647 0.218723
vn 0.212896 -1.78484e-017 0.977075
v 188.869 92.5823 -6.87559
vt 0.134647 0.0674995
v 190.442 91.3388 -7.27788
vt 0.135831 0.0665929
vn 0.247802 -1.76133e-017 0.968811
v 192.37 88.75 -7.77102
vt 0.137282 0.0647055
v 193.582 85.7352 -8.08102
vt 0.138194 0.0625075
v 193.995 82.5 -8.18675
vt 0.138505 0.0601487
v 193.582 79.2648 -8.08102
vt 0.138194 0.05779
v 192.37 76.25 -7.77102
vt 0.137282 0.055592
v 190.442 73.6612 -7.27788
vt 0.135831 0.0537046
v 188.869 72.4177 -6.87559
vt 0.134647 0.052798
vt 0.134647 4.6274e-018
vt 0.150336 4.6274e-018
vt 0.150336 0.0510467
v 209.602 70 -12.1786
vt 0.15025 0.0510353
v 206.466 70.4259 -11.3764
vt 0.147889 0.0513458
v 203.543 71.6747 -10.6288
vt 0.14569 0.0522563
v 201.033 73.6612 -9.9869
vt 0.143801 0.0537046
v 199.108 76.25 -9.49434
vt 0.142352 0.055592
v 197.897 79.2648 -9.1847
vt 0.141441 0.05779
v 197.484 82.5 -9.07909
vt 0.14113 0.0601487
v 197.897 85.7352 -9.1847
vt 0.141441 0.0625075
v 199.108 88.75 -9.49434
vt 0.142352 0.0647055
v 201.033 91.3388 -9.9869
vt 0.143801 0.0665929
v 203.543 93.3253 -10.6288
vt 0.14569 0.0680412
v 206.466 94.5741 -11.3764
vt 0.147889 0.0689516
v 209.602 95 -12.1786
vt 0.15025 0.0692622
vt 0.150336 0.0692508
vt 0.150336 0.218723
f 12/119/11 108/120/11 109/121/12 110/122/12 111/123/12 112/124/12 113/125/12 114/126/12 115/127/12 116/128/11 63/129/11 62/130/9 100/131/9 117/132/12 118/133/12 119/134/12 120/135/12 121/136/12 122/137/12 123/138/12 124/139/12 125/140/12 126/141/12 127/142/12 128/143/12 129/144/12 88/145/9 11/146/9 

vt 0.136399 4.46481e-018
vt 0.136399 0.052798
v 187.916 71.6747 -6.70349
vt 0.135693 0.0522563
vn 0.177716 -1.80606e-017 0.984082
v 184.949 70.4259 -6.16768
vt 0.133495 0.0513458
v 181.765 70 -5.59269
vt 0.131136 0.0510353
v 178.581 70.4259 -5.01769
vt 0.128777 0.0513458
v 175.614 71.6747 -4.48188
vt 0.126579 0.0522563
v 173.067 73.6612 -4.02177
vt 0.124691 0.0537046
v 171.112 76.25 -3.66871
vt 0.123243 0.055592
v 169.883 79.2648 -3.44677
vt 0.122332 0.05779
v 169.463 82.5 -3.37108
vt 0.122022 0.0601487
v 169.883 85.7352 -3.44677
vt 0.122332 0.0625075
v 171.112 88.75 -3.66871
vt 0.123243 0.0647055
v 173.067 91.3388 -4.02177
vt 0.124691 0.0665929
v 175.614 93.3253 -4.48188
vt 0.126579 0.0680412
v 178.581 94.5741 -5.01769
vt 0.128777 0.0689516
v 181.765 95 -5.59269
vt 0.131136 0.0692622
v 184.949 94.5741 -6.16768
vt 0.133495 0.0689516
v 187.916 93.3253 -6.70349
vt 0.135693 0.0680412
vt 0.136399 0.0674995
vt 0.136399 0.218723
vt 0.12071 0.218723
vn 0.142308 -1.56639e-017 0.989822
vt 0.12071 4.46481e-018
f 63/147/11 116/148/11 130/149/13 131/150/13 132/151/13 133/152/13 134/153/13 135/154/13 136/155/13 137/156/13 138/157/13 139/158/13 140/159/13 141/160/13 142/161/13 143/162/13 144/163/13 145/164/13 146/165/13 108/166/11 12/167/11 13/168/14 64/169/14 

v 146.297 300 -0.754868
vt 0.106111 0.218723
vn 0.0709885 -1.25818e-017 0.997477
v 146.297 92.5132 -0.754868
vt 0.106111 0.0674491
v 147.349 93.3253 -0.867827
vt 0.106883 0.0680412
vn 0.106717 -1.3247e-017 0.994289
v 150.347 94.5741 -1.18957
vt 0.109081 0.0689516
v 153.564 95 -1.53485
vt 0.11144 0.0692622
v 156.781 94.5741 -1.88013
vt 0.113799 0.0689516
v 159.779 93.3253 -2.20188
vt 0.115997 0.0680412
v 162.353 91.3388 -2.47817
vt 0.117884 0.0665929
v 164.328 88.75 -2.69018
vt 0.119333 0.0647055
v 165.57 85.7352 -2.82345
vt 0.120243 0.0625075
v 165.993 82.5 -2.8689
vt 0.120554 0.0601487
v 165.57 79.2648 -2.82345
vt 0.120243 0.05779
v 164.328 76.25 -2.69018
vt 0.119333 0.055592
v 162.353 73.6612 -2.47817
vt 0.117884 0.0537046
v 159.779 71.6747 -2.20188
vt 0.115997 0.0522563
v 156.781 70.4259 -1.88013
vt 0.113799 0.0513458
v 153.564 70 -1.53485
vt 0.11144 0.0510353
v 150.347 70.4259 -1.18957
vt 0.109081 0.0513458
v 147.349 71.6747 -0.867827
vt 0.106883 0.0522563
v 146.297 72.4868 -0.754868
vt 0.106111 0.0528484
v 146.297 5.63993e-015 -0.754868
vt 0.106111 4.25547e-018
vt 0.108524 4.25547e-018
vt 0.1218 4.25547e-018
vt 0.1218 0.218723
vt 0.108524 0.218723
f 147/170/15 148/171/15 149/172/16 150/173/16 151/174/16 152/175/16 153/176/16 154/177/16 155/178/16 156/179/16 157/180/16 158/181/16 159/182/16 160/183/16 161/184/16 162/185/16 163/186/16 164/187/16 165/188/16 166/189/15 167/190/15 65/191/16 64/192/14 13/193/14 14/194/16 

v 124.791 300 0.00192455
vt 0.0909258 0.218723
vn -0.000696545 -1.47138e-018 1
v 124.791 94.9725 0.00192455
vt 0.0909258 0.0692421
v 125 95 -0.00542901
vt 0.0910782 0.0692622
vn 0.0351686 -1.19004e-017 0.999381
v 128.235 94.5741 -0.119278
vt 0.0934384 0.0689516
v 131.25 93.3253 -0.225369
vt 0.0956377 0.0680412
v 133.839 91.3388 -0.316471
vt 0.0975264 0.0665929
v 135.825 88.75 -0.386376
vt 0.0989756 0.0647055
v 137.074 85.7352 -0.43032
vt 0.0998866 0.0625075
v 137.5 82.5 -0.445309
vt 0.100197 0.0601487
v 137.074 79.2648 -0.43032
vt 0.0998866 0.05779
v 135.825 76.25 -0.386376
vt 0.0989756 0.055592
v 133.839 73.6612 -0.316471
vt 0.0975264 0.0537046
v 131.25 71.6747 -0.225369
vt 0.0956377 0.0522563
v 128.235 70.4259 -0.119278
vt 0.0934384 0.0513458
v 125 70 -0.00542901
vt 0.0910782 0.0510353
v 124.791 70.0275 0.00192455
vt 0.0909258 0.0510553
v 124.791 5.63993e-015 0.00192455
vt 0.0909258 4.15003e-018
vt 0.106615 4.15003e-018
vt 0.106615 0.0528484
v 144.764 73.6612 -0.700947
vt 0.105497 0.0537046
v 142.776 76.25 -0.630959
vt 0.104046 0.055592
v 141.525 79.2648 -0.586962
vt 0.103134 0.05779
v 141.099 82.5 -0.571955
vt 0.102823 0.0601487
v 141.525 85.7352 -0.586962
vt 0.103134 0.0625075
v 142.776 88.75 -0.630959
vt 0.104046 0.0647055
v 144.764 91.3388 -0.700947
vt 0.105497 0.0665929
vt 0.106615 0.0674491
vt 0.106615 0.218723
f 168/195/17 169/196/17 170/197/18 171/198/18 172/199/18 173/200/18 174/201/18 175/202/18 176/203/18 177/204/18 178/205/18 179/206/18 180/207/18 181/208/18 182/209/18 183/210/17 184/211/17 167/212/15 166/213/15 185/214/18 186/215/18 187/216/18 188/217/18 189/218/18 190/219/18 191/220/18 148/221/15 147/222/15 

v 103.286 300 -0.784826
vt 0.0752324 0.218723
vn -0.072378 3.04418e-018 0.997377
v 103.286 92.8338 -0.784826
vt 0.0752324 0.0676828
v 105.237 91.3388 -0.713474
vt 0.0766552 0.0665929
vn -0.0365608 8.95955e-018 0.999331
v 107.225 88.75 -0.640721
vt 0.078106 0.0647055
v 108.475 85.7352 -0.594986
vt 0.079018 0.0625075
v 108.902 82.5 -0.579387
vt 0.0793291 0.0601487
v 108.475 79.2648 -0.594986
vt 0.079018 0.05779
v 107.225 76.25 -0.640721
vt 0.078106 0.055592
v 105.237 73.6612 -0.713474
vt 0.0766552 0.0537046
v 103.286 72.1662 -0.784826
vt 0.0752324 0.0526146
v 103.286 5.63993e-015 -0.784826
vt 0.0752324 4.14173e-018
vt 0.0909213 4.14173e-018
vt 0.0909213 0.0510553
v 121.765 70.4259 -0.108792
vt 0.0887135 0.0513458
v 118.75 71.6747 -0.219088
vt 0.086514 0.0522563
v 116.161 73.6612 -0.313802
vt 0.0846253 0.0537046
v 114.175 76.25 -0.386478
vt 0.083176 0.055592
v 112.926 79.2648 -0.432164
vt 0.082265 0.05779
v 112.5 82.5 -0.447746
vt 0.0819542 0.0601487
v 112.926 85.7352 -0.432164
vt 0.082265 0.0625075
v 114.175 88.75 -0.386478
vt 0.083176 0.0647055
v 116.161 91.3388 -0.313802
vt 0.0846253 0.0665929
v 118.75 93.3253 -0.219088
vt 0.086514 0.0680412
v 121.765 94.5741 -0.108792
vt 0.0887135 0.0689516
vt 0.0909213 0.0692421
vt 0.0909213 0.218723
f 192/223/19 193/224/19 194/225/20 195/226/20 196/227/20 197/228/20 198/229/20 199/230/20 200/231/20 201/232/19 202/233/19 184/234/17 183/235/17 203/236/20 204/237/20 205/238/20 206/239/20 207/240/20 208/241/20 209/242/20 210/243/20 211/244/20 212/245/20 213/246/20 169/247/17 168/248/17 

vt 0.0748005 4.0869e-018
vt 0.0748005 0.0526146
v 102.65 71.6747 -0.854083
vt 0.0743334 0.0522563
vn -0.108102 -2.8751e-018 0.99414
v 99.6522 70.4259 -1.18001
vt 0.0721352 0.0513458
v 96.4357 70 -1.52978
vt 0.0697763 0.0510353
v 93.2191 70.4259 -1.87954
vt 0.0674174 0.0513458
v 90.2218 71.6747 -2.20547
vt 0.0652192 0.0522563
v 87.6479 73.6612 -2.48535
vt 0.0633316 0.0537046
v 85.6729 76.25 -2.70011
vt 0.0618832 0.055592
v 84.4313 79.2648 -2.83512
vt 0.0609726 0.05779
v 84.0079 82.5 -2.88117
vt 0.0606621 0.0601487
v 84.4313 85.7352 -2.83512
vt 0.0609726 0.0625075
v 85.6729 88.75 -2.70011
vt 0.0618832 0.0647055
v 87.6479 91.3388 -2.48535
vt 0.0633316 0.0665929
v 90.2218 93.3253 -2.20547
vt 0.0652192 0.0680412
v 93.2191 94.5741 -1.87954
vt 0.0674174 0.0689516
v 96.4357 95 -1.52978
vt 0.0697763 0.0692622
v 99.6522 94.5741 -1.18001
vt 0.0721352 0.0689516
v 102.65 93.3253 -0.854083
vt 0.0743334 0.0680412
vt 0.0748005 0.0676828
vt 0.0748005 0.218723
vt 0.0726209 0.218723
vt 0.0591115 0.218723
vn -0.143687 -4.50752e-018 0.989623
vt 0.0591115 4.0869e-018
vt 0.0726209 4.0869e-018
f 202/249/19 201/250/19 214/251/21 215/252/21 216/253/21 217/254/21 218/255/21 219/256/21 220/257/21 221/258/21 222/259/21 223/260/21 224/261/21 225/262/21 226/263/21 227/264/21 228/265/21 229/266/21 230/267/21 193/268/19 192/269/19 15/270/21 16/271/22 67/272/22 66/273/21 

usemtl Translucent_Glass_Gray
vt -4.0664 0.0308987
vt -5.75971 0.0297192
vt -4.91303 -7.57697e-005
f 192/274/2 15/17/2 14/16/2 147/275/2 168/276/2 

usemtl Metal_Aluminum_Anodized
vt 0.0426462 0.218723
vn -0.214257 -2.98225e-017 0.976777
v 60.7225 92.3421 -6.96485
vt 0.0426462 0.0673243
v 61.9833 93.3253 -6.73535
vt 0.0435805 0.0680412
vn -0.179087 -6.13415e-018 0.983833
v 64.9495 94.5741 -6.19541
vt 0.0457786 0.0689516
v 68.1326 95 -5.61599
vt 0.0481375 0.0692622
v 71.3157 94.5741 -5.03656
vt 0.0504963 0.0689516
v 74.2819 93.3253 -4.49663
vt 0.0526944 0.0680412
v 76.829 91.3388 -4.03297
vt 0.054582 0.0665929
v 78.7835 88.75 -3.6772
vt 0.0560304 0.0647055
v 80.0121 85.7352 -3.45355
vt 0.0569409 0.0625075
v 80.4312 82.5 -3.37727
vt 0.0572514 0.0601487
v 80.0121 79.2648 -3.45355
vt 0.0569409 0.05779
v 78.7835 76.25 -3.6772
vt 0.0560304 0.055592
v 76.829 73.6612 -4.03297
vt 0.054582 0.0537046
v 74.2819 71.6747 -4.49663
vt 0.0526944 0.0522563
v 71.3157 70.4259 -5.03656
vt 0.0504963 0.0513458
v 68.1326 70 -5.61599
vt 0.0481375 0.0510353
v 64.9495 70.4259 -6.19541
vt 0.0457786 0.0513458
v 61.9833 71.6747 -6.73535
vt 0.0435805 0.0522563
v 60.7225 72.6579 -6.96485
vt 0.0426462 0.0529731
vt 0.0426462 4.03266e-018
vt 0.0583351 4.03266e-018
vt 0.0583351 0.218723
f 17/277/23 231/278/23 232/279/24 233/280/24 234/281/24 235/282/24 236/283/24 237/284/24 238/285/24 239/286/24 240/287/24 241/288/24 242/289/24 243/290/24 244/291/24 245/292/24 246/293/24 247/294/24 248/295/24 249/296/23 68/297/23 67/298/22 16/299/22 

vt 0.0259211 0.218723
vt 0.0259211 0.0692207
v 40.3008 95 -12.2186
vt 0.0262362 0.0692622
vn -0.249151 -5.34725e-017 0.968465
v 43.4359 94.5741 -11.4121
vt 0.0285964 0.0689516
v 46.3573 93.3253 -10.6605
vt 0.0307957 0.0680412
v 48.866 91.3388 -10.0151
vt 0.0326842 0.0665929
v 50.7909 88.75 -9.51988
vt 0.0341334 0.0647055
v 52.001 85.7352 -9.20856
vt 0.0350444 0.0625075
v 52.4138 82.5 -9.10238
vt 0.0353551 0.0601487
v 52.001 79.2648 -9.20856
vt 0.0350444 0.05779
v 50.7909 76.25 -9.51988
vt 0.0341334 0.055592
v 48.866 73.6612 -10.0151
vt 0.0326842 0.0537046
v 46.3573 71.6747 -10.6605
vt 0.0307957 0.0522563
v 43.4359 70.4259 -11.4121
vt 0.0285964 0.0513458
v 40.3008 70 -12.2186
vt 0.0262362 0.0510353
vt 0.0259211 0.0510768
vt 0.0259211 3.25916e-018
vt 0.04161 3.25916e-018
vt 0.04161 0.0529731
v 59.4539 73.6612 -7.2912
vt 0.040655 0.0537046
v 57.5265 76.25 -7.78705
vt 0.039204 0.055592
v 56.3149 79.2648 -8.09876
vt 0.0382919 0.05779
v 55.9016 82.5 -8.20508
vt 0.0379808 0.0601487
v 56.3149 85.7352 -8.09876
vt 0.0382919 0.0625075
v 57.5265 88.75 -7.78705
vt 0.039204 0.0647055
v 59.4539 91.3388 -7.2912
vt 0.040655 0.0665929
vt 0.04161 0.0673243
vt 0.04161 0.218723
f 18/300/6 60/301/6 250/302/25 251/303/25 252/304/25 253/305/25 254/306/25 255/307/25 256/308/25 257/309/25 258/310/25 259/311/25 260/312/25 261/313/25 262/314/25 48/315/6 47/316/6 68/317/23 249/318/23 263/319/25 264/320/25 265/321/25 266/322/25 267/323/25 268/324/25 269/325/25 231/326/23 17/327/23 

usemtl FrontColor
f 202/274/2 66/17/2 65/16/2 167/275/2 184/276/2 

usemtl Metal_Aluminum_Anodized
vn 1 0 -6.89584e-015
v 250 300 -1.108
vt 0.000807816 0.218723
v 250 5.63993e-015 -1.108
vt 0.000807816 4.11194e-018
f 2/2/26 270/328/26 271/329/26 3/3/26 

v 8.4599e-014 300 -1.108
vt -0.000807816 0.218723
vn -1 0 -0
vt -0.0199008 0.218723
vt -0.0199008 4.11194e-018
v 8.4599e-014 5.63993e-015 -1.108
vt -0.000807816 4.11194e-018
f 272/330/27 7/331/27 39/332/27 273/333/27 

v -5.63993e-015 120 -300
vt -0.218723 0.0874891
vn -1 8.76878e-033 3.30904e-016
v -5.63993e-015 50 -300
vt -0.218723 0.0364538
v -5.63993e-015 5.63993e-015 -300
vt -0.218723 4.11194e-018
vt -0.218723 0.218723
f 274/334/28 275/335/28 276/336/28 39/332/28 7/331/28 8/337/28 

v 100 70 -300
vt -0.0729076 0.0510353
vn -7.21911e-016 0 -1
vt -1.53786e-016 0.0364538
vt -1.53786e-016 0.0874891
f 277/338/29 275/339/29 274/340/29

vt -0.182269 0.0364538
f 275/339/29 277/338/29 5/341/29

v 150 70 -300
vt -0.109361 0.0510353
f 278/342/29 5/341/29 277/338/29

vt -0.182269 0.0874891
f 5/341/29 278/342/29 6/343/29

v 150 90 -300
vt -0.109361 0.0656168
f 6/343/29 278/342/29 279/344/29

f 6/343/29 279/344/29 274/340/29

v 100 90 -300
vt -0.0729076 0.0656168
f 280/345/29 274/340/29 279/344/29

f 277/338/29 274/340/29 280/345/29

